{"title":"Is.This.the.Real.World.2015.720p.WEB-DL.DD5.1.H264-FGT","uid":15432203,"size":3067453942,"categoryP":"video","categoryS":"hd___movies","magnet":"?xt=urn:btih:3bf4c722138730d9ac56efaedcc92570037b15e5&amp;dn=Is.This.the.Real.World.2015.720p.WEB-DL.DD5.1.H264-FGT&amp;tr=udp%3A%2F%2Ftracker.leechers-paradise.org%3A6969&amp;tr=udp%3A%2F%2Fzer0day.ch%3A1337&amp;tr=udp%3A%2F%2Fopen.demonii.com%3A1337&amp;tr=udp%3A%2F%2Ftracker.coppersurfer.tk%3A6969&amp;tr=udp%3A%2F%2Fexodus.desync.com%3A6969","seeders":1,"leechers":0,"uploader":null,"files":3,"time":1469733770,"description":"Video\r\nID                                       : 1\r\nFormat                                   : AVC\r\nFormat/Info                              : Advanced Video Codec\r\nFormat profile                           :   \r\nFormat settings, CABAC                   : No\r\nFormat settings, ReFrames                : 2 frames\r\nCodec ID                                 : V_MPEG4/ISO/AVC\r\nDuration                                 : 1h 31mn\r\nBit rate                                 : 3 994 Kbps\r\nWidth                                    : 1 280 pixels\r\nHeight                                   : 534 pixels\r\nDisplay aspect ratio                     : 2.40:1\r\nFrame rate mode                          : Constant\r\nFrame rate                               : 24.000 fps\r\nColor space                              : YUV\r\nChroma subsampling                       : 4:2:0\r\nBit depth                                : 8 bits\r\nScan type                                : Progressive\r\nBits/(Pixel*Frame)                       : 0.244\r\nStream size                              : 2.55 GiB (89%)\r\nTitle                                    : Is.This.the.Real.World.2015.720p.WEB-DL.DD5.1.H264-FGT\r\nLanguage                                 : English\r\nDefault                                  : Yes\r\nForced                                   : No\r\nColor range                              : Limited\r\nColor primaries                          : BT.709\r\nTransfer characteristics                 : BT.709\r\nMatrix coefficients                      : BT.709\r\n\r\nAudio\r\nID                                       : 2\r\nFormat                                   : AC-3\r\nFormat/Info                              : Audio Coding 3\r\nMode extension                           : CM (complete main)\r\nFormat settings, Endianness              : Big\r\nCodec ID                                 : A_AC3\r\nDuration                                 : 1h 31mn\r\nBit rate mode                            : Constant\r\nBit rate                                 : 384 Kbps\r\nChannel(s)                               : 6 channels\r\nChannel positions                        : Front: L C R, Side: L R, LFE\r\nSampling rate                            : 48.0 KHz\r\nFrame rate                               : 31.250 fps (1536 spf)\r\nCompression mode                         : Lossy\r\nStream size                              : 251 MiB (9%)\r\nTitle                                    : Is.This.the.Real.World.2015.720p.WEB-DL.DD5.1.H264-FGT\r\nLanguage                                 : English\r\nDefault                                  : Yes\r\nForced                                   : No","torrent":{"xt":"urn:btih:3bf4c722138730d9ac56efaedcc92570037b15e5","amp;dn":"Is.This.the.Real.World.2015.720p.WEB-DL.DD5.1.H264-FGT","amp;tr":["udp%3A%2F%2Ftracker.leechers-paradise.org%3A6969","udp%3A%2F%2Fzer0day.ch%3A1337","udp%3A%2F%2Fopen.demonii.com%3A1337","udp%3A%2F%2Ftracker.coppersurfer.tk%3A6969","udp%3A%2F%2Fexodus.desync.com%3A6969"],"infoHash":"3bf4c722138730d9ac56efaedcc92570037b15e5","infoHashBuffer":{"type":"Buffer","data":[59,244,199,34,19,135,48,217,172,86,239,174,220,201,37,112,3,123,21,229]},"announce":[],"urlList":[]}}